HIERARCHY
ROOT pelvis
{
  OFFSET 0 100 0
  CHANNELS 6 Xposition Yposition Zposition Zrotation Xrotation Yrotation
  JOINT pelvis_right_femur
  {
    OFFSET -10.78128 -3.44521 -0.5502486
    CHANNELS 3 Zrotation Xrotation Yrotation
    JOINT right_femur_tibia
    {
      OFFSET -0.8047443 -44.0398 -0.1307829
      CHANNELS 3 Zrotation Xrotation Yrotation
      JOINT right_tibia_foot
      {
        OFFSET 3.006224 -47.83518 -5
        CHANNELS 3 Zrotation Xrotation Yrotation
        End Site
        {
          OFFSET 0 -5 15
        }
      }
    }
  }
  JOINT pelvis_left_femur
  {
    OFFSET 10.78128 -3.44521 -0.5502486
    CHANNELS 3 Zrotation Xrotation Yrotation
    JOINT left_femur_tibia
    {
      OFFSET 0.8047443 -44.0398 -0.1307829
      CHANNELS 3 Zrotation Xrotation Yrotation
      JOINT left_tibia_foot
      {
        OFFSET -4.370144 -48.10324 -4.275266
        CHANNELS 3 Zrotation Xrotation Yrotation
        End Site
        {
          OFFSET 0 -5 15
        }
      }
    }
  }
  JOINT pelvis_spine1
  {
    OFFSET 0 6.468898 -3.129235
    CHANNELS 3 Zrotation Xrotation Yrotation
    JOINT spine1
    {
      OFFSET 0 23.15396 4.99043
      CHANNELS 3 Zrotation Xrotation Yrotation
      JOINT spine2
      {
        OFFSET 0 20.79997 -5.064912
        CHANNELS 3 Zrotation Xrotation Yrotation
        JOINT neck
        {
          OFFSET 0 14.38658 9.616178
          CHANNELS 3 Zrotation Xrotation Yrotation
          End Site
          {
            OFFSET 0 20 0
          }
        }
      }
      JOINT right_manubrium
      {
        OFFSET -5.722621 16.35077 3.967754
        CHANNELS 3 Zrotation Xrotation Yrotation
        JOINT right_clavicle
        {
          OFFSET -13.16364 1.694482 -4.693211
          CHANNELS 3 Zrotation Xrotation Yrotation
          JOINT right_humerus
          {
            OFFSET -28.5034 -0.3100689 -2.792744
            CHANNELS 3 Zrotation Xrotation Yrotation
            JOINT right_radius
            {
              OFFSET -25.15693 0.02248979 -1.271978
              CHANNELS 3 Zrotation Xrotation Yrotation
              End Site
              {
                OFFSET -15 0 0
              }
            }
          }
        }
      }
      JOINT left_manubrium
      {
        OFFSET 5.722621 16.35077 3.967754
        CHANNELS 3 Zrotation Xrotation Yrotation
        JOINT left_clavicle
        {
          OFFSET 13.16364 1.694482 -4.693211
          CHANNELS 3 Zrotation Xrotation Yrotation
          JOINT left_humerus
          {
            OFFSET 29.39168 -1.063119 -2.237045
            CHANNELS 3 Zrotation Xrotation Yrotation
            JOINT left_radius
            {
              OFFSET 24.59957 -0.9528479 0.9047498
              CHANNELS 3 Zrotation Xrotation Yrotation
              End Site
              {
                OFFSET 15 -0 -0
              }
            }
          }
        }
      }
    }
  }
}
MOTION
Frames: 11
Frame Time: 0.0416666666667
0 103.5113 0 -0.08994082 -1.243521 -0.368578 -0.8476165 -0.7726297 10.80685 -0 19.38238 -0 -5.224518 -16.01392 0.1149612 -3.329579 7.190743 -21.01086 -0 10.77284 -0 8.383929 -18.83245 25.30618 0.2224689 -7.8477 8.16493 -0.5225436 11.2618 -8.221716 -3.938077 16.9263 15.76706 15.62644 -21.34029 4.668619 12.62926 -20.20759 13.22683 82.43133 36.12754 -19.2613 -0 0 13.97957 -12.81435 8.710339 10.79409 5.673531 -21.98299 -1.659836 -97.68523 37.07653 23.73998 0 0 -19.68474 -1.11395 -2.219678 9.246029
0.6925734 103.3333 0.5635191 -0.09694678 -1.277938 -0.639961 -0.5767263 -3.896455 11.18365 -0 25.66733 -0 -4.801494 -15.7047 -0.3686953 -3.814291 7.619275 -20.7859 -0 10.77991 -0 8.561619 -19.3284 25.41028 0.2806232 -7.472514 7.960058 -0.4792112 11.40708 -8.247709 -3.56809 17.12855 15.57467 15.123 -22.11798 5.690459 12.32309 -20.20819 12.91974 82.06382 35.60912 -18.68967 -0 0 14.43606 -13.14361 8.596466 10.97079 5.649781 -21.97356 -1.57111 -97.76543 36.69229 23.88174 0 0 -19.57958 -1.370383 -2.508471 9.335352
1.380258 103.2602 1.311773 -0.1058439 -1.318479 -0.958292 -0.06197028 -7.979138 11.30928 -0 32.91352 -0 -4.426157 -14.58948 -1.127839 -4.291542 8.308903 -20.54179 -0 10.49956 -0 8.635809 -19.73312 25.53361 0.07708912 -7.003181 7.552243 -0.4021605 11.5994 -8.455216 -3.23938 17.23462 15.42995 14.7285 -22.87524 6.583906 12.15344 -20.24385 12.52554 81.64969 35.03298 -18.1303 -0 0 14.93637 -13.47937 8.471263 11.15519 5.729951 -22.05026 -1.480452 -97.59378 36.4215 23.98057 0 0 -19.40029 -1.45465 -2.574571 9.407081
1.97938 103.1434 2.265043 -0.1163433 -1.362264 -1.303162 0.3548982 -12.10896 11.25445 -0 40.19601 -0 -4.151041 -13.17513 -2.023984 -4.661265 9.195642 -20.28086 -0 10.02465 -0 8.628577 -20.08886 25.67599 -0.3303286 -6.43773 7.033982 -0.2888528 11.97088 -8.767976 -2.826817 17.18822 15.29223 14.51445 -23.671 7.399838 12.12737 -20.42395 12.0779 81.11535 34.42917 -17.52651 -0 0 15.42047 -13.83401 8.33115 11.32205 5.636604 -21.68383 -1.409106 -97.78582 36.09752 24.55717 0 0 -18.95341 -1.540235 -2.598678 9.544276
2.461788 103.0609 3.402951 -0.1332783 -1.43474 -1.874045 1.052011 -16.46748 10.53949 -0 45.23304 -0 -4.085731 -12.23289 -2.851856 -5.011204 10.31383 -19.89023 -0 9.41308 -0 8.540461 -20.40354 25.84304 -0.9191233 -5.669394 6.413931 -0.002120601 12.14521 -9.3045 -2.456283 17.1197 15.19754 14.38416 -24.34195 8.076769 12.09118 -20.55962 11.53449 80.61785 33.81142 -17.11386 -0 0 15.71692 -14.17459 8.184787 11.43792 5.832646 -21.75806 -1.408961 -97.36404 35.98449 24.66873 0 0 -18.60007 -1.372493 -2.351468 9.650739
2.791848 103.0718 4.736815 -0.1522376 -1.50948 -2.467967 1.886489 -20.66499 9.359553 -0 46.38335 -0 -4.115988 -11.84445 -3.199952 -5.300312 11.57715 -19.38275 -0 8.73462 -0 8.354924 -20.68018 25.94703 -1.718608 -4.709192 6.00199 0.2725931 12.08941 -9.789109 -2.026401 16.98105 15.02324 14.32556 -24.84485 8.540863 11.98925 -20.96783 11.15947 80.02957 33.27295 -16.54704 -0 0 15.86631 -14.48152 8.057242 11.50506 6.069393 -21.67375 -1.439464 -97.22993 35.82448 24.86479 0 0 -18.20532 -1.234583 -2.135938 9.809745
3.078441 102.9896 6.211902 -0.1734257 -1.587496 -3.095155 2.699064 -23.68802 7.749637 -0 44.84289 -0 -4.169739 -11.05074 -3.171629 -5.737308 12.88208 -18.76904 -0 8.070741 -0 8.136568 -21.01628 25.9698 -2.463828 -3.499781 5.778538 0.8112567 12.11166 -10.20827 -1.457948 16.78322 14.86061 14.34329 -25.45458 9.180417 11.6023 -20.74086 10.67523 80.06287 32.87538 -16.89555 -0 0 15.17935 -14.47751 8.042627 11.32115 6.466677 -21.67835 -1.546289 -97.1356 35.65013 24.81822 0 0 -18.08786 -1.092287 -1.911578 9.929919
3.443057 102.8017 8.217432 -0.1903198 -1.642872 -3.548665 3.547086 -26.63584 6.59541 -0 40.34233 -0 -4.201582 -9.54797 -2.815646 -5.910409 14.52718 -18.21972 -0 7.521383 -0 7.8181 -21.46441 25.57599 -3.016175 -2.311441 5.620596 1.346126 11.94858 -10.53213 -0.8555056 16.58701 14.68998 14.4002 -26.10942 9.837176 11.15223 -20.5054 10.36462 80.20219 32.63271 -17.41666 -0 0 14.07388 -14.24177 8.130244 10.99955 6.752084 -21.7265 -1.7036 -97.07394 35.42348 24.6615 0 0 -18.1061 -0.9242958 -1.700611 9.990255
3.681567 102.3463 10.5174 -0.1940851 -1.639709 -3.543853 4.059675 -28.85592 5.994779 -0 34.29953 -0 -4.359935 -7.663931 -2.247917 -6.101828 16.15268 -17.68015 -0 7.200428 -0 7.528513 -22.03172 24.95111 -3.450966 -1.113683 5.382508 1.72473 11.65417 -10.87128 -0.4698209 16.30038 14.45142 14.31341 -26.54 10.07575 10.70947 -20.18551 10.22711 80.59673 32.52088 -18.12358 -0 0 12.66182 -13.79499 8.335206 10.58892 7.068487 -21.95109 -1.89534 -96.7868 35.19288 24.28499 0 0 -18.17065 -0.6721364 -1.496484 9.983244
3.955421 101.6278 13.14805 -0.1900415 -1.604803 -3.288931 4.392495 -30.27497 5.292822 -0 26.99363 -0 -4.458679 -6.252303 -1.963975 -6.281536 17.78262 -17.11799 -0 7.264576 -0 7.210522 -22.61355 24.05385 -3.728311 -0.1273512 5.185975 2.155253 11.38956 -11.10412 -0.08575115 16.07843 14.20003 14.24571 -26.82454 10.21143 10.2859 -19.75647 10.25376 81.29151 32.49288 -19.00943 -0 0 10.94762 -13.10458 8.617774 10.07556 7.233577 -21.89178 -2.374714 -96.38876 34.88518 23.5554 0 0 -18.50952 -0.3160365 -1.289304 9.878485
4.154351 100.9089 16.1365 -0.1687429 -1.49305 -2.424892 4.575742 -31.33062 4.947384 -0 20.90279 -0 -4.788949 -5.004322 -1.686793 -6.241475 19.34202 -16.58344 -0 7.888602 -0 6.719426 -22.98319 22.80928 -3.879328 0.767878 4.860891 2.590452 11.03249 -11.38805 0.2678234 15.88859 13.9128 14.18676 -27.05076 10.19625 9.866424 -19.16951 10.36543 82.2186 32.52408 -20.12193 -0 0 8.939409 -12.26458 8.98655 9.469106 7.41907 -21.99421 -2.949436 -95.8539 34.63848 22.77188 0 0 -18.86949 -0.03097971 -1.120389 9.739601
